<?xml version="1.0" encoding="UTF-8" standalone="no"?>
<!-- Created with Inkscape (http://www.inkscape.org/) -->

<svg
   width="215.24016mm"
   height="186.40346mm"
   viewBox="0 0 215.24016 186.40346"
   version="1.1"
   id="svg1"
   xml:space="preserve"
   inkscape:version="1.3-dev (unknown)"
   sodipodi:docname="logo.svg"
   inkscape:export-filename="logo.png"
   inkscape:export-xdpi="96"
   inkscape:export-ydpi="96"
   xmlns:inkscape="http://www.inkscape.org/namespaces/inkscape"
   xmlns:sodipodi="http://sodipodi.sourceforge.net/DTD/sodipodi-0.dtd"
   xmlns="http://www.w3.org/2000/svg"
   xmlns:svg="http://www.w3.org/2000/svg"><sodipodi:namedview
     id="namedview1"
     pagecolor="#ffffff"
     bordercolor="#000000"
     borderopacity="0.25"
     inkscape:showpageshadow="2"
     inkscape:pageopacity="0.0"
     inkscape:pagecheckerboard="0"
     inkscape:deskcolor="#d1d1d1"
     inkscape:document-units="mm"
     inkscape:zoom="1.3576313"
     inkscape:cx="370.12995"
     inkscape:cy="310.8355"
     inkscape:window-width="1920"
     inkscape:window-height="1004"
     inkscape:window-x="0"
     inkscape:window-y="0"
     inkscape:window-maximized="1"
     inkscape:current-layer="g1"
     showgrid="false" /><defs
     id="defs1"><style
       id="style1">.fa-secondary{opacity:.4}</style></defs><g
     inkscape:label="Calque 1"
     inkscape:groupmode="layer"
     id="layer1"
     transform="translate(-1.1432187,-10.525393)"><path
       sodipodi:type="star"
       style="fill:#eca24a;fill-opacity:1;stroke-width:0.499999;stroke-linecap:round;stroke-linejoin:bevel"
       id="path1"
       inkscape:flatsided="true"
       sodipodi:sides="6"
       sodipodi:cx="75.959427"
       sodipodi:cy="-75.014824"
       sodipodi:r1="60.193417"
       sodipodi:r2="52.129032"
       sodipodi:arg1="1.0471976"
       sodipodi:arg2="1.5707963"
       inkscape:rounded="0"
       inkscape:randomized="0"
       d="m 106.05613,-22.885795 -60.193414,-2e-6 -30.096706,-52.12903 30.096711,-52.129023 60.193419,0 30.0967,52.129029 z"
       transform="matrix(1.7879045,0,0,1.7879045,-27.044902,237.84646)" /><g
       id="g1"
       transform="matrix(0.26458333,0,0,0.26458333,32.5633,36.110695)"><path
         class="fa-secondary"
         d="m 193.3,416 h 189.5 c 7.52,-10.19 14.5,-20.93 20.76,-32 H 172.5 c 6.3,11.1 13.2,21.8 20.8,32 z m -41,-80 h 271.4 c 2.834,-10.59 4.555,-21.28 4.84,-32 H 147.5 c 0.2,10.7 2,21.4 4.8,32 z M 288,512 c 0,0 24.78,-18.69 53.5,-48 h -107 c 28.7,29.3 53.5,48 53.5,48 z M 448,95.1 c -27.72,0 -55.38,9.465 -80.73,22.73 -1.732,20.65 -11.2,38.83 -25.63,52.03 11.44,4.789 22.22,11.14 31.91,18.62 2.13157,67.07814 -32.66972,8.31145 44.81,61.198 C 414.9,240.7 411,231.1 405.8,224 H 170.2 c -6.4,9.8 -12.1,20.7 -15.1,32 h 265.7 c 4.773,14.15 7.951,29.04 7.945,44.8 0,1.068 -0.2266,2.133 -0.2559,3.201 -0.125,4.727 -0.5566,9.452 -1.213,14.16 C 434.2,319.2 441.1,320 448,320 518.67,320 576,269.88 576,208.9 576,146.2 518.7,95.1 448,95.1 Z M 155.1,256 c 0.7305,-2.166 1.695,-4.205 2.5,-6.332 C 212.05683,205.73873 173.83114,256 201.52,189.38 212.1,181.9 222.8,175.6 234.3,170.8 219.8,157.6 210.4,139.4 208.7,118.7 183.3,105.5 155.7,95.1 128,95.1 57.33,95.99 0,146.1 0,207.1 0,269.8 57.29,320 127.1,320 c 7.8,0 14.7,-0.8 21.6,-1.8 -0.7,-4.7 -1.1,-9.5 -1.2,-14.2 -0.1,-1.1 -0.3,-2.1 -0.3,-3.2 0,-15.8 3.2,-30.7 7.9,-44.8 z"
         id="path2"
         style="fill:#972721;fill-opacity:1"
         sodipodi:nodetypes="ccccccccccccccscccccccccccsssccccccssccsc" /><path
         class="fa-primary"
         d="m 342.1,170.9 c 4.611,-4.236 8.76,-8.973 12.28,-14.18 5.75,-8.512 9.906,-18.19 12.04,-28.61 C 367.4,122.9 368,117.5 368,111.1 368,90.7 360.168,72.26 347.6,58.13 l 31.71,-31.71 c 6.25,-6.25 6.25,-16.38 0,-22.62 -6.25,-6.24 -16.38,-6.25 -22.62,0 L 321.7,38.79 C 311.4,34.88 300.1,31.1 288,31.1 c -5.523,0 -10.92,0.5618 -16.12,1.628 -6.189,1.266 -12,3.445 -17.58,6.051 l -35,-34.091 c -6.25,-6.25 -16.38,-6.25 -22.62,0 -6.24,6.25 -6.25,16.38 0,22.62 L 228.4,58.99 C 215.8,73.12 208,91.59 208,111.1 c 0,5.523 0.5586,10.92 1.625,16.13 2.131,10.42 6.287,20.09 12.04,28.61 3.535,5.26 7.935,10.66 12.635,14.96 -27.2,10.9 -48.7,29.6 -64.1,53.2 H 405.8 C 390.5,200.5 368.3,181.9 342.1,170.9 Z M 234.5,464 h 107 c 13.61,-13.89 28.02,-30.1 41.23,-48 H 193.3 c 13.2,17.9 27.6,34.1 41.2,48 z M 420.9,256 H 155.1 c -4.773,14.15 -7.951,29.04 -7.945,44.8 0,1.068 0.2266,2.134 0.2559,3.203 h 281.1 c 0.0293,-1.068 0.2559,-2.133 0.2559,-3.201 C 428.8,285 425.6,270.1 420.9,256 Z M 172.5,384 h 230.1 c 8.742,-15.45 15.8,-31.55 20.21,-48 H 152.3 c 4.4,16.4 11.5,32.6 20.2,48 z"
         id="path1-6"
         style="fill:#ffffff;fill-opacity:1" /></g></g></svg>
